<svg width="28" height="28" viewBox="0 0 28 28" fill="none" xmlns="http://www.w3.org/2000/svg">
<g clip-path="url(#clip0_29_7)">
<path fill-rule="evenodd" clip-rule="evenodd" d="M14.0234 16.6649L24.7781 27.4196C25.1367 27.7659 25.6169 27.9575 26.1154 27.9532C26.6139 27.9489 27.0907 27.7489 27.4432 27.3964C27.7957 27.044 27.9956 26.5671 27.9999 26.0687C28.0043 25.5702 27.8126 25.0899 27.4663 24.7314L16.7116 13.9766L27.4663 3.22189C27.8126 2.86333 28.0043 2.38309 27.9999 1.88462C27.9956 1.38615 27.7957 0.909319 27.4432 0.556832C27.0907 0.204345 26.6139 0.00440346 26.1154 7.18681e-05C25.6169 -0.00425973 25.1367 0.187364 24.7781 0.533673L14.0234 11.2884L3.26861 0.533673C2.90844 0.195925 2.43099 0.0115538 1.9373 0.0195705C1.4436 0.0275872 0.972396 0.227363 0.62338 0.576627C0.274363 0.92589 0.0749198 1.39724 0.0672523 1.89094C0.0595849 2.38464 0.244294 2.86195 0.582296 3.22189L11.3351 13.9766L0.580395 24.7314C0.398817 24.9068 0.253985 25.1165 0.154348 25.3485C0.0547108 25.5804 0.00226535 25.8299 7.17815e-05 26.0823C-0.00212179 26.3348 0.0459799 26.5851 0.141571 26.8188C0.237162 27.0524 0.378328 27.2647 0.556831 27.4432C0.735334 27.6217 0.9476 27.7628 1.18124 27.8584C1.41489 27.954 1.66523 28.0021 1.91766 27.9999C2.17009 27.9977 2.41956 27.9453 2.65151 27.8457C2.88345 27.746 3.09323 27.6012 3.26861 27.4196L14.0234 16.6649Z" fill="white"/>
</g>
<defs>
<clipPath id="clip0_29_7">
<rect width="28" height="28" fill="white"/>
</clipPath>
</defs>
</svg>
