<svg width="16" height="16" viewBox="0 0 16 16" fill="none" xmlns="http://www.w3.org/2000/svg">
<g clip-path="url(#clip0_23_2)">
<path d="M15 15L11.4563 11.4563M11.4563 11.4563C12.0251 10.8876 12.4763 10.2123 12.7841 9.46918C13.0919 8.72604 13.2504 7.92955 13.2504 7.12518C13.2504 6.32081 13.0919 5.52431 12.7841 4.78117C12.4763 4.03803 12.0251 3.3628 11.4563 2.79402C10.8876 2.22525 10.2123 1.77407 9.46918 1.46625C8.72604 1.15843 7.92955 1 7.12518 1C6.32081 1 5.52431 1.15843 4.78117 1.46625C4.03803 1.77407 3.3628 2.22525 2.79402 2.79402C1.64533 3.94272 1 5.50068 1 7.12518C1 8.74967 1.64533 10.3076 2.79402 11.4563C3.94272 12.605 5.50068 13.2504 7.12518 13.2504C8.74967 13.2504 10.3076 12.605 11.4563 11.4563Z" stroke="#BBBBBB" stroke-width="2" stroke-linecap="round" stroke-linejoin="round"/>
</g>
<defs>
<clipPath id="clip0_23_2">
<rect width="16" height="16" fill="white"/>
</clipPath>
</defs>
</svg>
